<svg width="198" height="186" viewBox="0 0 198 186" fill="none" xmlns="http://www.w3.org/2000/svg">
<path d="M48.7625 32.4517C56.045 17.3101 70.4609 5.25003 86.03 1.27265C107.024 -4.0914 129.866 7.88421 140.773 29.9741C145.02 38.5775 150.118 58.3438 148.505 59.9554C148.058 60.4039 145.35 59.9889 142.489 59.0359C137.383 57.3336 137.245 57.1348 134.994 48.2705C130.801 31.7634 120.737 18.088 109.669 13.8608C96.9755 9.01368 75.6361 14.784 66.7619 25.4649C57.0999 37.0951 51.8601 53.5898 51.8601 72.3771C51.8601 86.6476 54.4918 98.8966 60.3193 111.749C63.7935 119.411 64.3005 119.937 68.965 120.724C75.0447 121.752 80.277 126.867 81.2077 132.695C82.1023 138.296 77.6913 144.912 71.4873 147.274C67.3919 148.832 66.4401 148.773 62.1881 146.696C55.9518 143.65 52.3062 136.65 54.17 131.303C55.297 128.07 54.8323 126.266 50.5691 117.348C43.1263 101.778 40.3641 89.8546 40.2834 72.9362C40.2039 56.2302 42.4243 45.6301 48.7625 32.4517Z" fill="#764ABC"/>
<path d="M71.7681 71.8353C71.7967 65.9009 73.9326 62.0205 78.5748 59.4683C79.9416 58.7166 82.7373 58.0866 84.7874 58.068C88.5909 58.0344 96.5916 62.0839 96.5916 64.0421C96.5916 64.6373 102.323 65.4387 109.328 65.8227C124.746 66.6676 140.127 70.9109 154.309 78.2344C167.836 85.2187 185.144 102.215 190.79 114.059C201.466 136.455 198.958 157.204 183.87 171.317C172.954 181.528 160.746 186.011 143.893 186C133.172 185.994 127.869 185.046 117.865 181.347L112.425 179.335L117.701 174.837L122.976 170.338L129.975 172.705C138.398 175.551 152.245 176.045 160.084 173.776C169.14 171.154 177.308 164.161 182.124 154.905C185.975 147.506 186.263 146.172 185.763 138.112C183.857 107.484 148.916 79.8534 108.566 77.0676L98.4554 76.3693L95.6646 80.1864C90.8759 86.7383 81.2301 87.0564 75.0422 80.8686C72.4105 78.2369 71.747 76.4054 71.7681 71.8353Z" fill="#764ABC"/>
<path d="M1.36823 150.033C-2.94215 130.701 2.92638 113.033 19.0508 96.8091L28.5749 87.2254L30.2051 93.3499L31.8353 99.4744L25.194 106.648C21.5409 110.594 16.9609 117.064 15.0151 121.025C11.9584 127.25 11.4813 129.664 11.5049 138.791C11.526 147.169 12.0814 150.38 14.1913 154.323C25.9358 176.277 55.0087 180.933 84.7601 165.624C101.984 156.762 112.547 147.494 122.046 132.91C125.382 127.788 125.42 127.538 123.458 123.403C120.932 118.08 120.916 114.836 123.388 110.053C125.802 105.385 132.728 102.266 138.342 103.32C144.237 104.426 148.778 110.321 148.778 116.865C148.778 123.18 146.133 127.282 140.56 129.611C137.922 130.713 135.518 133.07 134.003 136.041C126.134 151.464 107.705 168.515 90.1217 176.639C48.1797 196.017 9.00116 184.273 1.36823 150.033Z" fill="#764ABC"/>
<path d="M48.7625 32.4517C56.045 17.3101 70.4609 5.25003 86.03 1.27265C107.024 -4.0914 129.866 7.88421 140.773 29.9741C145.02 38.5775 150.118 58.3438 148.505 59.9554C148.058 60.4039 145.35 59.9889 142.489 59.0359C137.383 57.3336 137.245 57.1348 134.994 48.2705C130.801 31.7634 120.737 18.088 109.669 13.8608C96.9755 9.01368 75.6361 14.784 66.7619 25.4649C57.0999 37.0951 51.8601 53.5898 51.8601 72.3771C51.8601 86.6476 54.4918 98.8966 60.3193 111.749C63.7935 119.411 64.3005 119.937 68.965 120.724C75.0447 121.752 80.277 126.867 81.2077 132.695C82.1023 138.296 77.6913 144.912 71.4873 147.274C67.3919 148.832 66.4401 148.773 62.1881 146.696C55.9518 143.65 52.3062 136.65 54.17 131.303C55.297 128.07 54.8323 126.266 50.5691 117.348C43.1263 101.778 40.3641 89.8546 40.2834 72.9362C40.2039 56.2302 42.4243 45.6301 48.7625 32.4517Z" fill="#764ABC"/>
<path d="M71.7681 71.8353C71.7967 65.9009 73.9326 62.0205 78.5748 59.4683C79.9416 58.7166 82.7373 58.0866 84.7874 58.068C88.5909 58.0344 96.5916 62.0839 96.5916 64.0421C96.5916 64.6373 102.323 65.4387 109.328 65.8227C124.746 66.6676 140.127 70.9109 154.309 78.2344C167.836 85.2187 185.144 102.215 190.79 114.059C201.466 136.455 198.958 157.204 183.87 171.317C172.954 181.528 160.746 186.011 143.893 186C133.172 185.994 127.869 185.046 117.865 181.347L112.425 179.335L117.701 174.837L122.976 170.338L129.975 172.705C138.398 175.551 152.245 176.045 160.084 173.776C169.14 171.154 177.308 164.161 182.124 154.905C185.975 147.506 186.263 146.172 185.763 138.112C183.857 107.484 148.916 79.8534 108.566 77.0676L98.4554 76.3693L95.6646 80.1864C90.8759 86.7383 81.2301 87.0564 75.0422 80.8686C72.4105 78.2369 71.747 76.4054 71.7681 71.8353Z" fill="#764ABC"/>
<path d="M1.36823 150.033C-2.94215 130.701 2.92638 113.033 19.0508 96.8091L28.5749 87.2254L30.2051 93.3499L31.8353 99.4744L25.194 106.648C21.5409 110.594 16.9609 117.064 15.0151 121.025C11.9584 127.25 11.4813 129.664 11.5049 138.791C11.526 147.169 12.0814 150.38 14.1913 154.323C25.9358 176.277 55.0087 180.933 84.7601 165.624C101.984 156.762 112.547 147.494 122.046 132.91C125.382 127.788 125.42 127.538 123.458 123.403C120.932 118.08 120.916 114.836 123.388 110.053C125.802 105.385 132.728 102.266 138.342 103.32C144.237 104.426 148.778 110.321 148.778 116.865C148.778 123.18 146.133 127.282 140.56 129.611C137.922 130.713 135.518 133.07 134.003 136.041C126.134 151.464 107.705 168.515 90.1217 176.639C48.1797 196.017 9.00116 184.273 1.36823 150.033Z" fill="#764ABC"/>
</svg>
