<svg width="568" height="531" viewBox="0 0 568 531" fill="none" xmlns="http://www.w3.org/2000/svg">
<rect x="68.9362" y="128.418" width="209.36" height="369.458" rx="10" transform="rotate(-20.1917 68.9362 128.418)" fill="#9CC9B4"/>
<path d="M233.421 278.504C235.193 279.178 239.339 279.211 241.104 276.965C242.706 274.93 242.307 271.292 241.065 269.789C231.769 258.558 231.769 258.558 224.157 249.36C221.364 245.985 222.461 247.312 215.488 238.884C214.312 237.465 212.513 236.989 210.674 237.009C197.762 239.155 183.977 241.367 171.065 243.514C169.629 243.743 166.865 244.841 166.396 247.745C166.042 249.94 166.914 252.922 169.185 253.788C233.024 278.067 169.581 254.226 233.421 278.504Z" fill="#D1FFEA"/>
<path d="M163.364 208.751C161.89 209.943 159.769 213.514 160.812 216.178C161.756 218.593 165.089 220.089 167.009 219.774C181.364 217.413 181.364 217.413 193.122 215.481C197.437 214.772 195.742 215.05 206.512 213.278C208.327 212.98 209.645 211.663 210.556 210.062C215.222 197.805 220.272 184.758 224.938 172.501C225.465 171.144 225.915 168.196 223.651 166.322C221.94 164.905 218.931 164.149 217.043 165.679C163.94 208.631 216.467 165.801 163.364 208.751Z" fill="#D1FFEA"/>
<path d="M258.481 183.291C258.178 181.416 256.134 177.797 253.31 177.383C250.751 177.007 247.804 179.165 247.128 180.994C242.069 194.666 242.069 194.666 237.925 205.863C236.403 209.972 237.002 208.357 233.205 218.617C232.565 220.345 233.053 222.147 233.99 223.733C242.3 233.882 251.103 244.755 259.412 254.902C260.328 256.036 262.659 257.89 265.402 256.848C267.476 256.061 269.619 253.818 269.231 251.414C258.3 183.853 269.409 250.852 258.481 183.291Z" fill="#D1FFEA"/>
<rect x="181.084" y="70.006" width="209.36" height="369.458" rx="10" transform="rotate(-7.50203 181.084 70.006)" fill="#A2D6BE"/>
<path d="M303.179 232.103C304.951 232.777 309.097 232.811 310.863 230.565C312.464 228.529 312.065 224.892 310.823 223.388C301.528 212.158 301.528 212.158 293.916 202.96C291.123 199.585 292.219 200.911 285.246 192.484C284.07 191.064 282.271 190.589 280.433 190.609C267.52 192.755 253.736 194.967 240.823 197.113C239.387 197.342 236.623 198.44 236.154 201.344C235.801 203.539 236.672 206.522 238.944 207.388C302.782 231.667 239.339 207.826 303.179 232.103Z" fill="#D1FFEA"/>
<path d="M233.122 162.351C231.648 163.543 229.527 167.114 230.57 169.778C231.514 172.193 234.847 173.69 236.767 173.374C251.123 171.013 251.123 171.013 262.88 169.081C267.195 168.372 265.5 168.651 276.27 166.879C278.085 166.581 279.403 165.263 280.314 163.662C284.98 151.405 290.03 138.359 294.696 126.101C295.223 124.744 295.673 121.796 293.409 119.922C291.698 118.506 288.689 117.749 286.801 119.279C233.698 162.231 286.225 119.401 233.122 162.351Z" fill="#D1FFEA"/>
<path d="M328.239 136.892C327.936 135.016 325.893 131.397 323.068 130.984C320.509 130.607 317.563 132.765 316.886 134.594C311.827 148.266 311.827 148.266 307.683 159.463C306.162 163.572 306.76 161.957 302.963 172.217C302.324 173.945 302.811 175.747 303.748 177.333C312.058 187.482 320.861 198.355 329.171 208.502C330.087 209.636 332.418 211.49 335.16 210.448C337.234 209.661 339.377 207.418 338.989 205.014C328.059 137.454 339.167 204.452 328.239 136.892Z" fill="#D1FFEA"/>
<rect x="246.733" y="40.5055" width="209.36" height="369.458" rx="10" transform="rotate(1.43848 246.733 40.5055)" fill="#ADE1C9"/>
<path d="M370.598 232.264C372.371 232.939 376.516 232.972 378.282 230.726C379.883 228.691 379.485 225.053 378.242 223.55C368.947 212.319 368.947 212.319 361.335 203.121C358.542 199.746 359.638 201.072 352.665 192.645C351.49 191.226 349.69 190.75 347.852 190.77C334.939 192.916 321.155 195.128 308.242 197.275C306.807 197.504 304.042 198.602 303.574 201.506C303.22 203.701 304.092 206.683 306.363 207.549C370.201 231.828 306.759 207.987 370.598 232.264Z" fill="#D1FFEA"/>
<path d="M300.541 162.512C299.067 163.704 296.947 167.275 297.989 169.939C298.934 172.354 302.266 173.85 304.186 173.535C318.542 171.174 318.542 171.174 330.299 169.242C334.614 168.533 332.92 168.811 343.689 167.039C345.504 166.741 346.823 165.424 347.733 163.823C352.399 151.566 357.45 138.519 362.116 126.262C362.643 124.905 363.092 121.957 360.828 120.082C359.118 118.666 356.109 117.91 354.22 119.44C301.118 162.392 353.644 119.562 300.541 162.512Z" fill="#D1FFEA"/>
<path d="M395.658 137.052C395.355 135.177 393.312 131.558 390.487 131.144C387.928 130.768 384.982 132.926 384.305 134.755C379.246 148.427 379.246 148.427 375.102 159.624C373.581 163.733 374.179 162.118 370.382 172.378C369.743 174.106 370.23 175.908 371.167 177.494C379.477 187.643 388.28 198.516 396.59 208.663C397.506 209.797 399.836 211.651 402.579 210.609C404.653 209.822 406.796 207.579 406.408 205.175C395.478 137.614 406.586 204.613 395.658 137.052Z" fill="#D1FFEA"/>
<rect x="23.9476" y="226.853" width="492.611" height="307.882" rx="30" transform="rotate(-9.32567 23.9476 226.853)" fill="#9AADA8"/>
<path d="M178.431 414.832C180.203 415.506 184.349 415.54 186.115 413.294C187.716 411.258 187.317 407.62 186.075 406.117C176.78 394.887 176.78 394.887 169.167 385.689C166.374 382.314 167.471 383.64 160.498 375.213C159.322 373.793 157.523 373.317 155.685 373.338C142.772 375.484 128.988 377.696 116.075 379.842C114.639 380.071 111.875 381.169 111.406 384.073C111.052 386.268 111.924 389.251 114.196 390.116C178.034 414.396 114.591 390.555 178.431 414.832Z" fill="#ADE1C9"/>
<path d="M108.374 345.08C106.899 346.272 104.779 349.842 105.821 352.507C106.766 354.921 110.099 356.418 112.019 356.103C126.374 353.742 126.374 353.742 138.132 351.809C142.447 351.101 140.752 351.379 151.522 349.607C153.337 349.309 154.655 347.992 155.566 346.391C160.232 334.134 165.282 321.087 169.948 308.83C170.475 307.472 170.925 304.525 168.661 302.65C166.95 301.234 163.941 300.478 162.053 302.007C108.95 344.96 161.477 302.129 108.374 345.08Z" fill="#ADE1C9"/>
<path d="M203.491 319.62C203.188 317.744 201.145 314.126 198.32 313.712C195.761 313.335 192.815 315.494 192.139 317.323C187.08 330.994 187.08 330.994 182.935 342.192C181.414 346.301 182.012 344.686 178.215 354.945C177.576 356.673 178.063 358.476 179 360.062C187.31 370.21 196.114 381.083 204.423 391.23C205.339 392.365 207.67 394.218 210.412 393.177C212.486 392.39 214.629 390.147 214.241 387.742C203.311 320.182 214.419 387.181 203.491 319.62Z" fill="#ADE1C9"/>
<rect x="428.921" y="291.392" width="110.837" height="49.2611" rx="10" transform="rotate(-9.32567 428.921 291.392)" fill="#ADE1C9"/>
<circle cx="457.217" cy="311.706" r="12.3153" transform="rotate(-9.32567 457.217 311.706)" fill="#9AADA8"/>
</svg>
