<svg width="498" height="309" viewBox="0 0 498 309" fill="none" xmlns="http://www.w3.org/2000/svg">
<path d="M0.231567 30.7706C0.231567 14.202 13.663 0.770554 30.2316 0.770554H462.842C479.411 0.770554 492.842 14.202 492.842 30.7706V278.652C492.842 295.221 479.411 308.652 462.842 308.652H30.2316C13.663 308.652 0.231567 295.221 0.231567 278.652V30.7706Z" fill="#9AADA8"/>
<path d="M123.969 212.187C125.609 213.14 129.694 213.845 131.8 211.914C133.71 210.165 133.907 206.511 132.924 204.826C125.572 192.238 125.572 192.238 119.551 181.928C117.341 178.145 118.208 179.632 112.693 170.186C111.763 168.594 110.064 167.833 108.247 167.555C95.1574 167.581 81.197 167.53 68.107 167.555C66.6533 167.549 63.7477 168.184 62.8146 170.974C62.1097 173.083 62.4867 176.167 64.5878 177.389C123.648 211.692 64.9072 177.886 123.969 212.187Z" fill="#ADE1C9"/>
<path d="M66.141 132.005C64.4929 132.942 61.8222 136.122 62.4189 138.92C62.9598 141.456 66.0058 143.473 67.9513 143.473C82.5 143.469 82.5 143.469 94.4152 143.467C98.788 143.467 97.0707 143.467 107.985 143.464C109.824 143.464 111.339 142.378 112.497 140.945C119.087 129.607 126.185 117.551 132.776 106.212C133.516 104.958 134.437 102.122 132.507 99.905C131.048 98.2304 128.201 96.9966 126.09 98.1999C66.7292 131.979 125.502 98.2271 66.141 132.005Z" fill="#ADE1C9"/>
<path d="M164.127 122.295C164.132 120.395 162.702 116.493 159.982 115.627C157.517 114.841 154.26 116.493 153.297 118.188C146.089 130.859 146.089 130.859 140.185 141.237C138.018 145.045 138.87 143.549 133.461 153.057C132.549 154.659 132.739 156.517 133.406 158.233C139.962 169.594 146.887 181.75 153.442 193.11C154.162 194.377 156.162 196.584 159.037 196.001C161.211 195.56 163.689 193.694 163.695 191.259C163.858 122.82 163.963 190.733 164.127 122.295Z" fill="#ADE1C9"/>
<path d="M386.774 139.951C386.774 134.429 391.251 129.951 396.774 129.951H487.611C493.134 129.951 497.611 134.429 497.611 139.951V169.212C497.611 174.735 493.134 179.212 487.611 179.212H396.774C391.251 179.212 386.774 174.735 386.774 169.212V139.951Z" fill="#ADE1C9"/>
<path d="M424.126 154.571C424.126 161.372 418.613 166.886 411.811 166.886C405.01 166.886 399.496 161.372 399.496 154.571C399.496 147.769 405.01 142.256 411.811 142.256C418.613 142.256 424.126 147.769 424.126 154.571Z" fill="#9AADA8"/>
</svg>
