<svg width="83" height="94" viewBox="0 0 83 94" fill="none" xmlns="http://www.w3.org/2000/svg">
<path d="M50.0479 92.9487C51.3793 93.7222 54.6967 94.2947 56.4069 92.7271C57.9579 91.3068 58.1171 88.3396 57.3197 86.9716C51.3491 76.7501 51.3491 76.7501 46.4601 68.3783C44.6662 65.3065 45.3703 66.5135 40.8916 58.8435C40.1367 57.5512 38.7573 56.9333 37.2818 56.7076C26.6528 56.7282 15.3169 56.6869 4.68791 56.7076C3.50752 56.7021 1.14811 57.2182 0.390463 59.4835C-0.18189 61.1956 0.124188 63.7004 1.83027 64.6927C49.7871 92.5468 2.08968 65.0959 50.0479 92.9487Z" fill="white"/>
<path d="M3.09164 27.8405C1.7534 28.6016 -0.415226 31.1834 0.0692837 33.4556C0.508499 35.5145 2.98183 37.1523 4.56164 37.1523C16.3752 37.1495 16.3752 37.1495 26.0503 37.1481C29.601 37.1481 28.2065 37.1481 37.0691 37.1454C38.5624 37.1454 39.7922 36.2632 40.7324 35.1003C46.084 25.8931 51.8473 16.1037 57.1989 6.89652C57.8001 5.87808 58.5481 3.5756 56.9807 1.77544C55.7961 0.415697 53.4848 -0.586222 51.7705 0.390924C3.56928 27.8198 51.2928 0.412946 3.09164 27.8405Z" fill="white"/>
<path d="M82.6556 19.9559C82.6597 18.4131 81.4985 15.2449 79.2901 14.5416C77.2889 13.9031 74.644 15.2449 73.8616 16.6212C68.0091 26.9101 68.0091 26.9101 63.2148 35.337C61.4552 38.4294 62.1469 37.2142 57.7548 44.935C57.015 46.2356 57.1687 47.744 57.7108 49.1381C63.0336 58.3632 68.6569 68.2338 73.9797 77.4575C74.5644 78.4869 76.1881 80.2788 78.5228 79.8054C80.2879 79.4476 82.3001 77.9323 82.3056 75.9546C82.4373 20.3825 82.5224 75.528 82.6556 19.9559Z" fill="white"/>
</svg>
