<svg width="485" height="454" viewBox="0 0 485 454" fill="none" xmlns="http://www.w3.org/2000/svg">
<rect x="58.8716" y="110.476" width="178.793" height="315.517" rx="10" transform="rotate(-20.1917 58.8716 110.476)" fill="#9CC9B4"/>
<path d="M199.342 238.648C200.855 239.224 204.396 239.253 205.903 237.335C207.271 235.596 206.93 232.49 205.87 231.206C197.931 221.615 197.931 221.615 191.43 213.76C189.045 210.878 189.982 212.011 184.026 204.814C183.023 203.601 181.486 203.195 179.916 203.212C168.889 205.045 157.117 206.934 146.089 208.767C144.863 208.963 142.503 209.9 142.102 212.38C141.8 214.255 142.545 216.802 144.484 217.541C199.002 238.276 144.822 217.916 199.342 238.648Z" fill="#D1FFEA"/>
<path d="M139.513 179.08C138.254 180.098 136.443 183.147 137.333 185.423C138.14 187.485 140.986 188.763 142.626 188.494C154.885 186.477 154.885 186.477 164.926 184.827C168.611 184.222 167.164 184.46 176.361 182.946C177.911 182.692 179.037 181.567 179.815 180.199C183.8 169.732 188.112 158.59 192.097 148.123C192.548 146.963 192.932 144.446 190.998 142.845C189.537 141.636 186.967 140.99 185.355 142.296C140.005 178.977 184.863 142.4 139.513 179.08Z" fill="#D1FFEA"/>
<path d="M220.742 157.337C220.484 155.736 218.739 152.645 216.327 152.292C214.141 151.97 211.625 153.814 211.048 155.375C206.727 167.051 206.727 167.051 203.188 176.614C201.889 180.123 202.399 178.744 199.157 187.505C198.611 188.981 199.027 190.52 199.828 191.875C206.924 200.542 214.442 209.827 221.538 218.493C222.321 219.461 224.311 221.044 226.653 220.155C228.424 219.483 230.254 217.567 229.923 215.514C220.589 157.817 230.075 215.034 220.742 157.337Z" fill="#D1FFEA"/>
<rect x="154.646" y="60.5916" width="178.793" height="315.517" rx="10" transform="rotate(-7.50203 154.646 60.5916)" fill="#A2D6BE"/>
<path d="M258.915 199.023C260.429 199.599 263.969 199.627 265.477 197.709C266.844 195.971 266.504 192.864 265.443 191.58C257.505 181.99 257.505 181.99 251.004 174.134C248.619 171.252 249.555 172.385 243.6 165.188C242.596 163.976 241.059 163.569 239.49 163.587C228.462 165.419 216.69 167.309 205.663 169.141C204.437 169.337 202.076 170.275 201.676 172.755C201.374 174.629 202.118 177.176 204.058 177.916C258.576 198.65 204.396 178.29 258.915 199.023Z" fill="#D1FFEA"/>
<path d="M199.086 139.455C197.827 140.473 196.016 143.522 196.906 145.797C197.713 147.859 200.559 149.137 202.199 148.868C214.459 146.852 214.459 146.852 224.499 145.202C228.185 144.596 226.737 144.834 235.935 143.321C237.484 143.066 238.61 141.941 239.388 140.574C243.373 130.106 247.686 118.965 251.671 108.497C252.121 107.338 252.505 104.821 250.571 103.22C249.11 102.01 246.541 101.364 244.928 102.671C199.578 139.352 244.436 102.775 199.086 139.455Z" fill="#D1FFEA"/>
<path d="M280.316 117.712C280.057 116.11 278.312 113.02 275.9 112.666C273.715 112.345 271.198 114.188 270.621 115.75C266.301 127.425 266.301 127.425 262.761 136.988C261.462 140.497 261.973 139.118 258.73 147.88C258.184 149.355 258.601 150.895 259.401 152.249C266.497 160.916 274.016 170.202 281.112 178.867C281.894 179.836 283.885 181.419 286.227 180.53C287.998 179.857 289.828 177.942 289.496 175.888C280.162 118.192 289.649 175.409 280.316 117.712Z" fill="#D1FFEA"/>
<rect x="210.71" y="35.3981" width="178.793" height="315.517" rx="10" transform="rotate(1.43848 210.71 35.3981)" fill="#ADE1C9"/>
<path d="M316.491 199.16C318.004 199.736 321.545 199.765 323.053 197.846C324.42 196.108 324.08 193.002 323.019 191.718C315.081 182.127 315.081 182.127 308.58 174.272C306.195 171.39 307.131 172.522 301.176 165.326C300.172 164.113 298.635 163.707 297.065 163.724C286.038 165.557 274.266 167.446 263.239 169.279C262.013 169.474 259.652 170.412 259.252 172.892C258.95 174.767 259.694 177.314 261.634 178.053C316.152 198.788 261.972 178.427 316.491 199.16Z" fill="#D1FFEA"/>
<path d="M256.662 139.592C255.403 140.61 253.593 143.659 254.483 145.935C255.289 147.996 258.135 149.275 259.775 149.005C272.035 146.989 272.035 146.989 282.076 145.339C285.761 144.734 284.313 144.971 293.511 143.458C295.061 143.204 296.187 142.078 296.964 140.711C300.949 130.244 305.262 119.102 309.247 108.634C309.697 107.475 310.081 104.958 308.147 103.357C306.686 102.148 304.117 101.502 302.504 102.808C257.155 139.489 302.012 102.912 256.662 139.592Z" fill="#D1FFEA"/>
<path d="M337.892 117.849C337.633 116.247 335.888 113.157 333.476 112.804C331.29 112.482 328.774 114.325 328.197 115.887C323.876 127.563 323.876 127.563 320.337 137.125C319.038 140.635 319.549 139.256 316.306 148.017C315.76 149.493 316.177 151.032 316.977 152.387C324.073 161.053 331.591 170.339 338.687 179.004C339.47 179.973 341.46 181.556 343.803 180.667C345.573 179.995 347.403 178.079 347.072 176.026C337.738 118.329 347.224 175.546 337.892 117.849Z" fill="#D1FFEA"/>
<rect x="20.4514" y="194.539" width="420.69" height="262.931" rx="30" transform="rotate(-9.32567 20.4514 194.539)" fill="#9AADA8"/>
<path d="M152.38 355.073C153.894 355.649 157.434 355.678 158.942 353.759C160.309 352.021 159.969 348.914 158.908 347.63C150.97 338.04 150.97 338.04 144.469 330.185C142.084 327.302 143.02 328.435 137.065 321.238C136.061 320.026 134.524 319.62 132.955 319.637C121.927 321.47 110.155 323.359 99.1279 325.192C97.9019 325.387 95.5412 326.325 95.141 328.805C94.8388 330.679 95.5833 333.227 97.5231 333.966C152.041 354.7 97.861 334.34 152.38 355.073Z" fill="#ADE1C9"/>
<path d="M92.5513 295.505C91.2921 296.523 89.4815 299.572 90.3716 301.847C91.1783 303.909 94.0243 305.187 95.6638 304.918C107.924 302.902 107.924 302.902 117.965 301.252C121.65 300.647 120.202 300.884 129.4 299.371C130.949 299.116 132.075 297.991 132.853 296.624C136.838 286.157 141.151 275.015 145.136 264.547C145.586 263.388 145.97 260.871 144.036 259.27C142.575 258.06 140.006 257.414 138.393 258.721C93.0435 295.402 137.901 258.825 92.5513 295.505Z" fill="#ADE1C9"/>
<path d="M173.781 273.762C173.523 272.16 171.778 269.07 169.366 268.717C167.18 268.395 164.664 270.238 164.086 271.8C159.766 283.475 159.766 283.475 156.226 293.038C154.927 296.547 155.438 295.168 152.196 303.93C151.65 305.406 152.066 306.945 152.866 308.299C159.963 316.966 167.481 326.252 174.577 334.917C175.359 335.886 177.35 337.469 179.692 336.58C181.463 335.907 183.293 333.992 182.962 331.938C173.627 274.242 183.114 331.459 173.781 273.762Z" fill="#ADE1C9"/>
<rect x="366.299" y="249.655" width="94.6552" height="42.069" rx="10" transform="rotate(-9.32567 366.299 249.655)" fill="#ADE1C9"/>
<circle cx="390.464" cy="267.003" r="10.5172" transform="rotate(-9.32567 390.464 267.003)" fill="#9AADA8"/>
</svg>
